<svg width="616" height="612" viewBox="0 0 616 612" fill="none" xmlns="http://www.w3.org/2000/svg">
<path d="M134.551 612C126.819 612 120.551 605.732 120.551 598V506.779C120.551 499.047 114.283 492.779 106.551 492.779H14C6.26801 492.779 0 486.511 0 478.779V134.545C0 126.813 6.26801 120.545 14 120.545H106.551C114.283 120.545 120.551 114.277 120.551 106.545V14C120.551 6.26802 126.819 0 134.551 0H480.125C487.857 0 494.125 6.26801 494.125 14V106.545C494.125 114.277 500.393 120.545 508.125 120.545H602C609.732 120.545 616 126.813 616 134.545V478.779C616 486.511 609.732 492.779 602 492.779H508.125C500.393 492.779 494.125 499.047 494.125 506.779V598C494.125 605.732 487.857 612 480.125 612H134.551ZM133.798 465.532C133.798 473.264 140.066 479.532 147.798 479.532H466.877C474.609 479.532 480.877 473.264 480.877 465.532V146.467C480.877 138.735 474.609 132.467 466.877 132.467H147.798C140.066 132.467 133.798 138.735 133.798 146.467V465.532Z" fill="black"/>
<rect x="398" y="191" width="154" height="154" rx="20" fill="#535353"/>
</svg>
